Coordinates
version=1
nRows=15
nColumns=27
inDegrees=yes

Units are S.I. units (second, meters, Newtons, ...)
If the header above contains a line with 'inDegrees', this indicates whether rotational values are in degrees (yes) or radians (no).

endheader
time	pelvis_rotation	pelvis_tilt	pelvis_list	pelvis_tx	pelvis_ty	pelvis_tz	hip_flexion_r	hip_adduction_r	hip_rotation_r	knee_angle_r	knee_rotation_r	knee_adduction_r	knee_angle_r_beta	ankle_angle_r	subtalar_angle_r	mtp_angle_r	hip_flexion_l	hip_adduction_l	hip_rotation_l	knee_angle_l	knee_rotation_l	knee_adduction_l	knee_angle_l_beta	ankle_angle_l	subtalar_angle_l	mtp_angle_l
      5.38000000	      5.63610634	    -40.16120031	      5.39004294	     -0.05599579	      0.61312527	     -1.14718027	    111.43987257	    -41.87420985	     -1.83755844	     82.36359353	     -9.06430856	      9.29852725	      1.43751589	      9.26825796	      6.44512474	      0.00000000	    106.08771189	    -35.36996771	     -9.77439590	     75.94134741	     -8.23966794	     -9.53690915	      1.32542655	      4.94447314	     17.90241013	      0.00000000
      5.38500000	      6.05775298	    -39.95970187	      5.48745364	     -0.05519214	      0.61619914	     -1.14763290	    110.62441361	    -42.42475813	     -2.81270587	     81.80042735	     -9.45350557	      9.61653957	      1.42768679	      9.19796713	      6.55373247	      0.00000000	    105.42074011	    -34.84828672	    -10.52026699	     75.37124148	     -8.72484751	     -9.74828321	      1.31547633	      4.84153162	     18.00157702	      0.00000000
      5.39000000	      5.77452360	    -40.14248885	      5.29402498	     -0.05551817	      0.61765279	     -1.14767737	    110.40566516	    -42.14431407	     -2.67868999	     81.50892206	     -9.00539971	      9.29956002	      1.42259906	      9.11909560	      6.73249629	      0.00000000	    105.39574525	    -35.11480970	     -9.97291525	     75.18710277	     -8.03021888	     -9.53131219	      1.31226250	      4.77465965	     17.96088461	      0.00000000
      5.39500000	      6.13721721	    -39.87596683	      5.49963584	     -0.05456318	      0.62062462	     -1.14813268	    109.65788878	    -42.59130552	     -3.48057771	     80.97628645	     -9.41068369	      9.61856260	      1.41330281	      9.01403030	      6.80187126	      0.00000000	    104.54612811	    -34.70306601	    -10.92621081	     74.61462402	     -8.53564450	     -9.74646713	      1.30227086	      4.69581741	     18.08544593	      0.00000000
      5.40000000	      6.04735780	    -39.81822069	      5.52838211	     -0.05422547	      0.62269388	     -1.14833169	    109.24676116	    -42.52251799	     -3.68564811	     80.59274582	     -9.38472965	      9.61968070	      1.40660877	      8.93200035	      6.94689243	      0.00000000	    104.04163312	    -34.79345883	    -11.23030983	     74.26319014	     -8.43887659	     -9.74618382	      1.29613718	      4.65034967	     18.19334099	      0.00000000
      5.40500000	      6.08631132	    -39.77769854	      5.47776399	     -0.05384405	      0.62481675	     -1.14858481	    108.70889976	    -42.62555886	     -4.09865598	     80.18103592	     -9.36193439	      9.62119247	      1.39942307	      8.85584348	      7.07343925	      0.00000000	    103.66954657	    -34.71473895	    -11.33723247	     73.91065228	     -8.32769193	     -9.74558727	      1.28998423	      4.57925225	     18.23785722	      0.00000000
      5.41000000	      6.07611455	    -39.69883211	      5.44811685	     -0.05336824	      0.62679655	     -1.14882051	    108.19896952	    -42.67810161	     -4.42389287	     79.81461192	     -9.33840994	      9.62199144	      1.39302777	      8.81695265	      7.23933883	      0.00000000	    103.23173333	    -34.71939664	    -11.49641387	     73.58658214	     -8.19948792	     -9.74557932	      1.28432814	      4.53157607	     18.33361289	      0.00000000
      5.41500000	      5.72120944	    -39.90669884	      5.32914049	     -0.05362306	      0.62794171	     -1.14885245	    108.16680518	    -42.28566131	     -4.01927582	     79.59413106	     -8.82021565	      9.30772310	      1.38917965	      8.73261188	      7.33613107	      0.00000000	    103.17779213	    -35.11103467	    -11.06254287	     73.45703879	     -7.48541280	     -9.52539664	      1.28206719	      4.47981430	     18.30063143	      0.00000000
      5.42000000	      6.05312578	    -39.60459825	      5.43791523	     -0.05248108	      0.63068915	     -1.14930808	    107.30162963	    -42.73424980	     -4.98005360	     79.07598737	     -9.28001851	      9.62606901	      1.38013634	      8.66124836	      7.48905046	      0.00000000	    102.39966375	    -34.72119727	    -11.85196850	     72.94549499	     -7.95474608	     -9.74533255	      1.27313906	      4.44483927	     18.44224933	      0.00000000
      5.42500000	      6.03132566	    -39.52889005	      5.39412848	     -0.05196294	      0.63252413	     -1.14955465	    106.80269421	    -42.77390879	     -5.29006217	     78.72728555	     -9.24939810	      9.62663891	      1.37405034	      8.61283311	      7.65599900	      0.00000000	    101.99886383	    -34.73535561	    -11.96531031	     72.66036839	     -7.81734116	     -9.74375517	      1.26816266	      4.42186181	     18.53890983	      0.00000000
      5.43000000	      6.01511255	    -39.44807615	      5.43505001	     -0.05145082	      0.63443453	     -1.14980317	    106.37878918	    -42.77978547	     -5.48642728	     78.36672490	     -9.21900899	      9.62994755	      1.36775737	      8.49602671	      7.74426498	      0.00000000	    101.50093614	    -34.74709958	    -12.22554951	     72.32910517	     -7.70355493	     -9.74483762	      1.26238103	      4.36786616	     18.56057702	      0.00000000
      5.43500000	      5.64848270	    -39.67699679	      5.19679907	     -0.05166181	      0.63545118	     -1.14984084	    106.26510382	    -42.41796633	     -5.18349216	     78.15504101	     -8.65617216	      9.32460919	      1.36406279	      8.42195481	      7.78941385	      0.00000000	    101.58437180	    -35.12537984	    -11.61029679	     72.24417772	     -6.97513331	     -9.52694129	      1.26089877	      4.32893670	     18.48894797	      0.00000000
      5.44000000	      6.05553434	    -39.34265918	      5.35591364	     -0.05031651	      0.63800932	     -1.15029570	    105.40946077	    -42.93338614	     -6.14551290	     77.68233661	     -9.14821142	      9.63514767	      1.35581254	      8.40288410	      7.99267154	      0.00000000	    100.78488046	    -34.69987688	    -12.37197619	     71.76284257	     -7.39838826	     -9.74396805	      1.25249788	      4.28231834	     18.67893948	      0.00000000
      5.44500000	      5.70662460	    -39.57648212	      5.13141626	     -0.05050357	      0.63901345	     -1.15030683	    105.31633005	    -42.57488213	     -5.79473522	     77.48107546	     -8.55913620	      9.32597940	      1.35229987	      8.34286751	      7.98231268	      0.00000000	    100.86538211	    -35.05551190	    -11.77452724	     71.66334426	     -6.68897105	     -9.52421608	      1.25076131	      4.23421218	     18.60692984	      0.00000000
      5.45000000	      6.13188283	    -39.21532743	      5.29987222	     -0.04910080	      0.64149908	     -1.15080953	    104.44207885	    -43.11544754	     -6.77422195	     77.01610927	     -9.07527922	      9.63794491	      1.34418468	      8.28038630	      8.26171908	      0.00000000	    100.05263772	    -34.60840391	    -12.50246927	     71.20851503	     -7.08999253	     -9.74289836	      1.24282304	      4.21780497	     18.74889862	      0.00000000
